<?xml version="1.0" encoding="UTF-8" standalone="no"?>
<svg
   version="1.1"
   x="0px"
   y="0px"
   viewBox="0 0 477.68301 463.01801"
   xml:space="preserve"
   id="svg9"
   sodipodi:docname="upload.svg"
   width="477.68301"
   height="463.01801"
   inkscape:version="1.3.2 (1:1.3.2+202311252150+091e20ef0f)"
   xmlns:inkscape="http://www.inkscape.org/namespaces/inkscape"
   xmlns:sodipodi="http://sodipodi.sourceforge.net/DTD/sodipodi-0.dtd"
   xmlns="http://www.w3.org/2000/svg"
   xmlns:svg="http://www.w3.org/2000/svg"><defs
     id="defs9" /><sodipodi:namedview
     id="namedview9"
     pagecolor="#ffffff"
     bordercolor="#000000"
     borderopacity="0.25"
     inkscape:showpageshadow="2"
     inkscape:pageopacity="0.0"
     inkscape:pagecheckerboard="0"
     inkscape:deskcolor="#d1d1d1"
     inkscape:zoom="1.3453125"
     inkscape:cx="238.60627"
     inkscape:cy="295.84204"
     inkscape:window-width="1920"
     inkscape:window-height="1016"
     inkscape:window-x="0"
     inkscape:window-y="0"
     inkscape:window-maximized="1"
     inkscape:current-layer="g7" /><g
     id="g8"
     transform="translate(-17.159,-24.491)"
     style="fill:#cccccc"><g
       id="g7"
       style="fill:#cccccc"><g
         id="g1"
         style="fill:#cccccc"><path
           d="M 409.734,487.509 H 17.159 V 131.105 h 392.576 v 356.404 z m -384.575,-8 H 401.735 V 139.105 H 25.159 Z"
           id="path1"
           style="fill:#cccccc" /></g><g
         id="g2"
         style="fill:#cccccc"><path
           d="M 361.186,413.259 H 65.707 v -236.46 h 295.479 z m -287.479,-8 H 353.186 V 184.799 H 73.707 Z"
           id="path2"
           style="fill:#cccccc" /></g><g
         id="g3"
         style="fill:#556ba4;fill-opacity:1"><path
           d="m 71.905,365.469 c -0.857,0 -1.721,-0.274 -2.45,-0.841 -1.745,-1.354 -2.061,-3.868 -0.706,-5.612 L 153.47,249.917 c 0.714,-0.92 1.794,-1.483 2.958,-1.542 1.167,-0.057 2.295,0.394 3.098,1.237 l 94.845,99.609 58.695,-59.473 c 0.832,-0.844 1.994,-1.271 3.179,-1.177 1.181,0.099 2.258,0.716 2.94,1.686 l 39.072,55.568 c 1.271,1.808 0.835,4.302 -0.972,5.573 -1.808,1.27 -4.303,0.833 -5.573,-0.972 l -36.317,-51.65 -58.229,59.001 c -0.76,0.771 -1.779,1.22 -2.882,1.19 -1.083,-0.01 -2.115,-0.458 -2.861,-1.242 l -94.485,-99.231 -81.87,105.427 c -0.789,1.017 -1.97,1.548 -3.163,1.548 z"
           id="path3"
           style="fill:#556ba4;fill-opacity:1" /></g><g
         id="g4"
         style="fill:#556ba4;fill-opacity:1"><path
           d="m 256.669,279.009 c -16.271,0 -29.508,-13.231 -29.508,-29.494 0,-16.271 13.237,-29.508 29.508,-29.508 16.271,0 29.508,13.237 29.508,29.508 10e-4,16.262 -13.237,29.494 -29.508,29.494 z m 0,-51.002 c -11.86,0 -21.508,9.648 -21.508,21.508 0,11.852 9.648,21.494 21.508,21.494 11.86,0 21.508,-9.643 21.508,-21.494 10e-4,-11.86 -9.648,-21.508 -21.508,-21.508 z"
           id="path4"
           style="fill:#556ba4;fill-opacity:1" /></g><g
         id="g5"
         style="fill:#cccccc"><polygon
           points="406.834,428.104 443.053,428.104 443.053,87.702 66.479,87.702 66.479,134.823 58.479,134.823 58.479,79.702 451.053,79.702 451.053,436.104 406.834,436.104 "
           id="polygon4"
           style="fill:#cccccc" /></g><g
         id="g6"
         style="fill:#cccccc"><polygon
           points="450.623,372.894 486.842,372.894 486.842,32.491 110.266,32.491 110.266,79.612 102.266,79.612 102.266,24.491 494.842,24.491 494.842,380.894 450.623,380.894 "
           id="polygon5"
           style="fill:#cccccc" /></g></g></g></svg>
