<?xml version="1.0" standalone="no"?>
<!DOCTYPE svg PUBLIC "-//W3C//DTD SVG 20010904//EN"
 "http://www.w3.org/TR/2001/REC-SVG-20010904/DTD/svg10.dtd">
<svg version="1.0" xmlns="http://www.w3.org/2000/svg"
 width="968.000000pt" height="968.000000pt" viewBox="0 0 968.000000 968.000000"
 preserveAspectRatio="xMidYMid meet">
<metadata>
Created by potrace 1.14, written by Peter Selinger 2001-2017
</metadata>
<g transform="translate(0.000000,968.000000) scale(0.100000,-0.100000)"
fill="#000000" stroke="none">
<path d="M2370 7493 c-59 -6 -169 -26 -211 -38 -59 -17 -96 -36 -136 -72 -17
-15 -55 -46 -83 -68 -28 -22 -60 -47 -69 -55 -10 -8 -33 -26 -51 -40 -19 -14
-63 -49 -99 -78 -94 -75 -111 -88 -261 -207 -74 -58 -142 -112 -150 -118 -8
-7 -80 -64 -160 -127 -162 -129 -177 -141 -194 -155 -6 -5 -29 -23 -51 -39
-22 -17 -42 -33 -45 -36 -3 -3 -25 -21 -50 -40 -25 -19 -50 -39 -57 -45 -16
-13 -37 -30 -203 -160 -74 -59 -173 -138 -220 -175 -47 -37 -109 -86 -138
-108 -29 -21 -68 -57 -86 -78 -148 -173 -135 -447 29 -608 47 -47 129 -91 190
-104 22 -4 2065 -8 4540 -7 l4500 0 63 24 c34 13 62 27 62 32 0 5 5 9 11 9 6
0 30 20 54 45 171 179 162 483 -18 648 -28 27 -113 96 -187 153 -155 121 -146
114 -225 177 -33 26 -73 59 -90 72 -16 13 -57 45 -91 72 -34 26 -76 59 -94 73
-18 14 -103 81 -189 149 -86 67 -169 133 -184 145 -16 11 -34 26 -40 31 -11
10 -291 229 -382 299 -22 17 -42 33 -45 36 -18 18 -110 90 -115 90 -3 0 -16
10 -29 23 -13 12 -59 49 -101 82 -43 33 -83 65 -89 70 -54 51 -152 97 -240
111 -21 3 -48 8 -60 11 -20 5 -4954 11 -5006 6z"/>
<path d="M281 5003 c-14 -12 -34 -29 -43 -38 -10 -8 -22 -15 -27 -15 -5 0 -37
-28 -71 -62 -86 -84 -131 -181 -136 -289 -9 -210 104 -386 286 -445 52 -17
262 -18 4550 -18 2472 1 4510 3 4528 7 58 10 145 59 190 106 40 43 97 144 108
194 25 106 11 238 -34 325 -47 91 -97 143 -233 241 -17 12 -702 14 -4555 15
l-4536 1 -27 -22z"/>
<path d="M9335 4041 c-16 -3 -2055 -6 -4530 -5 l-4500 0 -50 -39 c-144 -112
-135 -103 -173 -160 -60 -89 -83 -170 -78 -272 10 -189 110 -331 277 -394 l54
-21 4525 3 4525 2 58 27 c149 70 246 244 234 422 -2 45 -10 95 -17 111 -50
122 -89 176 -180 247 -100 78 -114 85 -145 79z"/>
<path d="M288 3033 c-6 -7 -39 -33 -73 -58 -152 -108 -224 -249 -211 -412 13
-168 97 -298 236 -366 l65 -32 4530 -2 c3574 -2 4537 0 4565 10 177 62 283
229 276 432 -6 153 -68 268 -196 364 -19 14 -46 36 -60 49 -14 12 -29 23 -35
23 -5 1 -2052 2 -4548 3 -3629 1 -4541 -1 -4549 -11z"/>
</g>
</svg>
